<mxfile host="Electron" agent="Mozilla/5.0 (Windows NT 10.0; Win64; x64) AppleWebKit/537.36 (KHTML, like Gecko) draw.io/24.7.17 Chrome/128.0.6613.36 Electron/32.0.1 Safari/537.36" version="24.7.17" pages="2">
  <diagram name="Page-1" id="wRks3Afpo8IuRcHSRg-P">
    <mxGraphModel dx="4884" dy="-432" grid="1" gridSize="10" guides="1" tooltips="1" connect="1" arrows="1" fold="1" page="1" pageScale="1" pageWidth="850" pageHeight="1100" math="0" shadow="0">
      <root>
        <mxCell id="0" />
        <mxCell id="1" parent="0" />
        <mxCell id="bVoZvjcnVdqYxxAt59BH-1" value="" style="rounded=0;whiteSpace=wrap;html=1;strokeColor=none;movable=0;resizable=0;rotatable=0;deletable=0;editable=0;locked=1;connectable=0;" parent="1" vertex="1">
          <mxGeometry x="33" y="4042" width="1148" height="826" as="geometry" />
        </mxCell>
        <mxCell id="BWHabExfZm8nHCO_QBh_-1" value="" style="shape=table;startSize=0;container=1;collapsible=0;childLayout=tableLayout;fontSize=13;align=left;spacingLeft=5;spacing=0;" vertex="1" parent="1">
          <mxGeometry x="75" y="4150" width="1055" height="120" as="geometry" />
        </mxCell>
        <mxCell id="BWHabExfZm8nHCO_QBh_-2" value="" style="shape=tableRow;horizontal=0;startSize=0;swimlaneHead=0;swimlaneBody=0;strokeColor=inherit;top=0;left=0;bottom=0;right=0;collapsible=0;dropTarget=0;fillColor=none;points=[[0,0.5],[1,0.5]];portConstraint=eastwest;fontSize=13;align=left;spacingLeft=5;spacing=0;" vertex="1" parent="BWHabExfZm8nHCO_QBh_-1">
          <mxGeometry width="1055" height="30" as="geometry" />
        </mxCell>
        <mxCell id="BWHabExfZm8nHCO_QBh_-3" value="Report" style="shape=partialRectangle;html=1;whiteSpace=wrap;connectable=0;strokeColor=inherit;overflow=hidden;fillColor=#660000;top=0;left=0;bottom=0;right=0;pointerEvents=1;fontSize=13;align=left;spacingLeft=25;spacing=0;fontColor=#FFFFFF;fontStyle=1" vertex="1" parent="BWHabExfZm8nHCO_QBh_-2">
          <mxGeometry width="275" height="30" as="geometry">
            <mxRectangle width="275" height="30" as="alternateBounds" />
          </mxGeometry>
        </mxCell>
        <mxCell id="BWHabExfZm8nHCO_QBh_-4" value="Description" style="shape=partialRectangle;html=1;whiteSpace=wrap;connectable=0;strokeColor=inherit;overflow=hidden;fillColor=#660000;top=0;left=0;bottom=0;right=0;pointerEvents=1;fontSize=13;align=left;spacingLeft=5;spacing=0;fontColor=#FFFFFF;fontStyle=1" vertex="1" parent="BWHabExfZm8nHCO_QBh_-2">
          <mxGeometry x="275" width="380" height="30" as="geometry">
            <mxRectangle width="380" height="30" as="alternateBounds" />
          </mxGeometry>
        </mxCell>
        <mxCell id="BWHabExfZm8nHCO_QBh_-5" value="Shared with" style="shape=partialRectangle;html=1;whiteSpace=wrap;connectable=0;strokeColor=inherit;overflow=hidden;fillColor=#660000;top=0;left=0;bottom=0;right=0;pointerEvents=1;fontSize=13;align=left;spacingLeft=5;spacing=0;fontColor=#FFFFFF;fontStyle=1" vertex="1" parent="BWHabExfZm8nHCO_QBh_-2">
          <mxGeometry x="655" width="150" height="30" as="geometry">
            <mxRectangle width="150" height="30" as="alternateBounds" />
          </mxGeometry>
        </mxCell>
        <mxCell id="BWHabExfZm8nHCO_QBh_-14" value="Last Run" style="shape=partialRectangle;html=1;whiteSpace=wrap;connectable=0;strokeColor=inherit;overflow=hidden;fillColor=#660000;top=0;left=0;bottom=0;right=0;pointerEvents=1;fontSize=13;align=left;spacingLeft=5;spacing=0;fontColor=#FFFFFF;fontStyle=1" vertex="1" parent="BWHabExfZm8nHCO_QBh_-2">
          <mxGeometry x="805" width="250" height="30" as="geometry">
            <mxRectangle width="250" height="30" as="alternateBounds" />
          </mxGeometry>
        </mxCell>
        <mxCell id="BWHabExfZm8nHCO_QBh_-6" value="" style="shape=tableRow;horizontal=0;startSize=0;swimlaneHead=0;swimlaneBody=0;strokeColor=inherit;top=0;left=0;bottom=0;right=0;collapsible=0;dropTarget=0;fillColor=none;points=[[0,0.5],[1,0.5]];portConstraint=eastwest;fontSize=13;align=left;spacingLeft=5;spacing=0;" vertex="1" parent="BWHabExfZm8nHCO_QBh_-1">
          <mxGeometry y="30" width="1055" height="30" as="geometry" />
        </mxCell>
        <mxCell id="BWHabExfZm8nHCO_QBh_-7" value="Needs Refinement" style="shape=partialRectangle;html=1;whiteSpace=wrap;connectable=0;strokeColor=inherit;overflow=hidden;fillColor=none;top=0;left=0;bottom=0;right=0;pointerEvents=1;fontSize=13;align=left;spacingLeft=64;spacing=0;" vertex="1" parent="BWHabExfZm8nHCO_QBh_-6">
          <mxGeometry width="275" height="30" as="geometry">
            <mxRectangle width="275" height="30" as="alternateBounds" />
          </mxGeometry>
        </mxCell>
        <mxCell id="BWHabExfZm8nHCO_QBh_-8" value="Items with the refinement tag" style="shape=partialRectangle;html=1;whiteSpace=wrap;connectable=0;strokeColor=inherit;overflow=hidden;fillColor=none;top=0;left=0;bottom=0;right=0;pointerEvents=1;fontSize=13;align=left;spacingLeft=5;spacing=0;" vertex="1" parent="BWHabExfZm8nHCO_QBh_-6">
          <mxGeometry x="275" width="380" height="30" as="geometry">
            <mxRectangle width="380" height="30" as="alternateBounds" />
          </mxGeometry>
        </mxCell>
        <mxCell id="BWHabExfZm8nHCO_QBh_-9" value="" style="shape=partialRectangle;html=1;whiteSpace=wrap;connectable=0;strokeColor=inherit;overflow=hidden;fillColor=none;top=0;left=0;bottom=0;right=0;pointerEvents=1;fontSize=13;align=left;spacingLeft=5;spacing=0;" vertex="1" parent="BWHabExfZm8nHCO_QBh_-6">
          <mxGeometry x="655" width="150" height="30" as="geometry">
            <mxRectangle width="150" height="30" as="alternateBounds" />
          </mxGeometry>
        </mxCell>
        <mxCell id="BWHabExfZm8nHCO_QBh_-15" style="shape=partialRectangle;html=1;whiteSpace=wrap;connectable=0;strokeColor=inherit;overflow=hidden;fillColor=none;top=0;left=0;bottom=0;right=0;pointerEvents=1;fontSize=13;align=left;spacingLeft=5;spacing=0;" vertex="1" parent="BWHabExfZm8nHCO_QBh_-6">
          <mxGeometry x="805" width="250" height="30" as="geometry">
            <mxRectangle width="250" height="30" as="alternateBounds" />
          </mxGeometry>
        </mxCell>
        <mxCell id="BWHabExfZm8nHCO_QBh_-10" value="" style="shape=tableRow;horizontal=0;startSize=0;swimlaneHead=0;swimlaneBody=0;strokeColor=inherit;top=0;left=0;bottom=0;right=0;collapsible=0;dropTarget=0;fillColor=none;points=[[0,0.5],[1,0.5]];portConstraint=eastwest;fontSize=13;align=left;spacingLeft=5;spacing=0;" vertex="1" parent="BWHabExfZm8nHCO_QBh_-1">
          <mxGeometry y="60" width="1055" height="30" as="geometry" />
        </mxCell>
        <mxCell id="BWHabExfZm8nHCO_QBh_-11" value="Jerry&#39;s Office Report" style="shape=partialRectangle;html=1;whiteSpace=wrap;connectable=0;strokeColor=inherit;overflow=hidden;fillColor=none;top=0;left=0;bottom=0;right=0;pointerEvents=1;fontSize=13;align=left;spacingLeft=64;spacing=0;" vertex="1" parent="BWHabExfZm8nHCO_QBh_-10">
          <mxGeometry width="275" height="30" as="geometry">
            <mxRectangle width="275" height="30" as="alternateBounds" />
          </mxGeometry>
        </mxCell>
        <mxCell id="BWHabExfZm8nHCO_QBh_-12" value="Mechanical Engineers in Atlanta" style="shape=partialRectangle;html=1;whiteSpace=wrap;connectable=0;strokeColor=inherit;overflow=hidden;fillColor=none;top=0;left=0;bottom=0;right=0;pointerEvents=1;fontSize=13;align=left;spacingLeft=5;spacing=0;" vertex="1" parent="BWHabExfZm8nHCO_QBh_-10">
          <mxGeometry x="275" width="380" height="30" as="geometry">
            <mxRectangle width="380" height="30" as="alternateBounds" />
          </mxGeometry>
        </mxCell>
        <mxCell id="BWHabExfZm8nHCO_QBh_-13" value="" style="shape=partialRectangle;html=1;whiteSpace=wrap;connectable=0;strokeColor=inherit;overflow=hidden;fillColor=none;top=0;left=0;bottom=0;right=0;pointerEvents=1;fontSize=13;align=left;spacingLeft=5;spacing=0;" vertex="1" parent="BWHabExfZm8nHCO_QBh_-10">
          <mxGeometry x="655" width="150" height="30" as="geometry">
            <mxRectangle width="150" height="30" as="alternateBounds" />
          </mxGeometry>
        </mxCell>
        <mxCell id="BWHabExfZm8nHCO_QBh_-16" style="shape=partialRectangle;html=1;whiteSpace=wrap;connectable=0;strokeColor=inherit;overflow=hidden;fillColor=none;top=0;left=0;bottom=0;right=0;pointerEvents=1;fontSize=13;align=left;spacingLeft=5;spacing=0;" vertex="1" parent="BWHabExfZm8nHCO_QBh_-10">
          <mxGeometry x="805" width="250" height="30" as="geometry">
            <mxRectangle width="250" height="30" as="alternateBounds" />
          </mxGeometry>
        </mxCell>
        <mxCell id="BWHabExfZm8nHCO_QBh_-22" style="shape=tableRow;horizontal=0;startSize=0;swimlaneHead=0;swimlaneBody=0;strokeColor=inherit;top=0;left=0;bottom=0;right=0;collapsible=0;dropTarget=0;fillColor=none;points=[[0,0.5],[1,0.5]];portConstraint=eastwest;fontSize=13;align=left;spacingLeft=5;spacing=0;" vertex="1" parent="BWHabExfZm8nHCO_QBh_-1">
          <mxGeometry y="90" width="1055" height="30" as="geometry" />
        </mxCell>
        <mxCell id="BWHabExfZm8nHCO_QBh_-23" value="Don&#39;s Daily Diff" style="shape=partialRectangle;html=1;whiteSpace=wrap;connectable=0;strokeColor=inherit;overflow=hidden;fillColor=none;top=0;left=0;bottom=0;right=0;pointerEvents=1;fontSize=13;align=left;spacingLeft=64;spacing=0;" vertex="1" parent="BWHabExfZm8nHCO_QBh_-22">
          <mxGeometry width="275" height="30" as="geometry">
            <mxRectangle width="275" height="30" as="alternateBounds" />
          </mxGeometry>
        </mxCell>
        <mxCell id="BWHabExfZm8nHCO_QBh_-24" value="Daily difference report on the GRV project" style="shape=partialRectangle;html=1;whiteSpace=wrap;connectable=0;strokeColor=inherit;overflow=hidden;fillColor=none;top=0;left=0;bottom=0;right=0;pointerEvents=1;fontSize=13;align=left;spacingLeft=5;spacing=0;" vertex="1" parent="BWHabExfZm8nHCO_QBh_-22">
          <mxGeometry x="275" width="380" height="30" as="geometry">
            <mxRectangle width="380" height="30" as="alternateBounds" />
          </mxGeometry>
        </mxCell>
        <mxCell id="BWHabExfZm8nHCO_QBh_-25" style="shape=partialRectangle;html=1;whiteSpace=wrap;connectable=0;strokeColor=inherit;overflow=hidden;fillColor=none;top=0;left=0;bottom=0;right=0;pointerEvents=1;fontSize=13;align=left;spacingLeft=5;spacing=0;" vertex="1" parent="BWHabExfZm8nHCO_QBh_-22">
          <mxGeometry x="655" width="150" height="30" as="geometry">
            <mxRectangle width="150" height="30" as="alternateBounds" />
          </mxGeometry>
        </mxCell>
        <mxCell id="BWHabExfZm8nHCO_QBh_-26" style="shape=partialRectangle;html=1;whiteSpace=wrap;connectable=0;strokeColor=inherit;overflow=hidden;fillColor=none;top=0;left=0;bottom=0;right=0;pointerEvents=1;fontSize=13;align=left;spacingLeft=5;spacing=0;" vertex="1" parent="BWHabExfZm8nHCO_QBh_-22">
          <mxGeometry x="805" width="250" height="30" as="geometry">
            <mxRectangle width="250" height="30" as="alternateBounds" />
          </mxGeometry>
        </mxCell>
        <mxCell id="bVoZvjcnVdqYxxAt59BH-2" value="" style="html=1;shadow=0;dashed=0;shape=mxgraph.bootstrap.rect;fillColor=#222222;strokeColor=none;whiteSpace=wrap;rounded=0;fontSize=12;fontColor=#000000;align=center;" parent="1" vertex="1">
          <mxGeometry x="32" y="3978" width="1150" height="41" as="geometry" />
        </mxCell>
        <mxCell id="bVoZvjcnVdqYxxAt59BH-3" value="Atlas" style="html=1;shadow=0;dashed=0;fillColor=none;strokeColor=none;shape=mxgraph.bootstrap.rect;fontColor=#999999;fontSize=14;whiteSpace=wrap;" parent="bVoZvjcnVdqYxxAt59BH-2" vertex="1">
          <mxGeometry width="115" height="40" as="geometry" />
        </mxCell>
        <mxCell id="bVoZvjcnVdqYxxAt59BH-4" value="Structures" style="html=1;shadow=0;dashed=0;shape=mxgraph.bootstrap.rect;fillColor=none;strokeColor=none;fontColor=#999999;spacingRight=30;whiteSpace=wrap;" parent="bVoZvjcnVdqYxxAt59BH-2" vertex="1">
          <mxGeometry x="115" width="129.375" height="40" as="geometry" />
        </mxCell>
        <mxCell id="bVoZvjcnVdqYxxAt59BH-5" value="Account" style="html=1;shadow=0;dashed=0;fillColor=none;strokeColor=none;shape=mxgraph.bootstrap.rect;fontColor=#999999;whiteSpace=wrap;" parent="bVoZvjcnVdqYxxAt59BH-2" vertex="1">
          <mxGeometry x="948.75" width="100.625" height="40" as="geometry" />
        </mxCell>
        <mxCell id="bVoZvjcnVdqYxxAt59BH-6" value="Log Out" style="html=1;shadow=0;dashed=0;fillColor=none;strokeColor=none;shape=mxgraph.bootstrap.rect;fontColor=#999999;whiteSpace=wrap;" parent="bVoZvjcnVdqYxxAt59BH-2" vertex="1">
          <mxGeometry x="1049.375" width="100.625" height="40" as="geometry" />
        </mxCell>
        <mxCell id="bVoZvjcnVdqYxxAt59BH-7" value="Reports" style="html=1;shadow=0;dashed=0;fillColor=#000000;strokeColor=none;shape=mxgraph.bootstrap.rect;fontColor=#FFFFFF;fontSize=14;whiteSpace=wrap;" parent="bVoZvjcnVdqYxxAt59BH-2" vertex="1">
          <mxGeometry x="245" y="1" width="115" height="40" as="geometry" />
        </mxCell>
        <mxCell id="bVoZvjcnVdqYxxAt59BH-8" value="" style="strokeWidth=1;html=1;shadow=0;dashed=0;shape=mxgraph.android.rrect;rSize=0;fillColor=#444444;strokeColor=none;" parent="1" vertex="1">
          <mxGeometry x="32" y="4018" width="1150" height="20" as="geometry" />
        </mxCell>
        <mxCell id="bVoZvjcnVdqYxxAt59BH-9" value="Home" style="strokeWidth=1;html=1;shadow=0;dashed=0;shape=mxgraph.android.anchor;fontStyle=1;fontColor=#ffffff;" parent="bVoZvjcnVdqYxxAt59BH-8" vertex="1">
          <mxGeometry width="95" height="20" as="geometry" />
        </mxCell>
        <mxCell id="bVoZvjcnVdqYxxAt59BH-10" value="" style="strokeWidth=1;html=1;shadow=0;dashed=0;shape=mxgraph.android.rrect;rSize=0;fontStyle=1;fillColor=none;strokeColor=none;fontColor=#ffffff;" parent="bVoZvjcnVdqYxxAt59BH-8" vertex="1">
          <mxGeometry x="287.5" width="287.5" height="20" as="geometry" />
        </mxCell>
        <mxCell id="bVoZvjcnVdqYxxAt59BH-11" value="" style="strokeWidth=1;html=1;shadow=0;dashed=0;shape=mxgraph.android.rrect;rSize=0;fillColor=none;strokeColor=none;" parent="bVoZvjcnVdqYxxAt59BH-10" vertex="1">
          <mxGeometry x="102" y="17.69" width="287.5" height="2" as="geometry" />
        </mxCell>
        <mxCell id="bVoZvjcnVdqYxxAt59BH-12" value="" style="strokeWidth=1;html=1;shadow=0;dashed=0;shape=mxgraph.android.rrect;rSize=0;fillColor=#FF0000;strokeColor=none;" parent="bVoZvjcnVdqYxxAt59BH-10" vertex="1">
          <mxGeometry x="-42.5" y="-3" width="113.5" height="2" as="geometry" />
        </mxCell>
        <mxCell id="bVoZvjcnVdqYxxAt59BH-13" value="" style="strokeWidth=1;html=1;shadow=0;dashed=0;shape=mxgraph.android.anchor;fontStyle=1;fontColor=#ffffff;" parent="bVoZvjcnVdqYxxAt59BH-8" vertex="1">
          <mxGeometry x="575" width="287.5" height="20" as="geometry" />
        </mxCell>
        <mxCell id="bVoZvjcnVdqYxxAt59BH-14" value="" style="strokeWidth=1;html=1;shadow=0;dashed=0;shape=mxgraph.android.anchor;fontStyle=1;fontColor=#ffffff;" parent="bVoZvjcnVdqYxxAt59BH-8" vertex="1">
          <mxGeometry x="862.5" width="287.5" height="20" as="geometry" />
        </mxCell>
        <mxCell id="bVoZvjcnVdqYxxAt59BH-15" value="" style="strokeWidth=1;html=1;shadow=0;dashed=0;shape=mxgraph.android.rrect;rSize=0;fillColor=#FF0000;strokeColor=none;" parent="bVoZvjcnVdqYxxAt59BH-8" vertex="1">
          <mxGeometry y="18" width="113" height="2" as="geometry" />
        </mxCell>
        <mxCell id="bVoZvjcnVdqYxxAt59BH-16" value="" style="strokeWidth=1;html=1;shadow=0;dashed=0;shape=mxgraph.android.anchor;fontStyle=1;fontColor=#ffffff;" parent="bVoZvjcnVdqYxxAt59BH-8" vertex="1">
          <mxGeometry x="96.25" width="197.75" height="20" as="geometry" />
        </mxCell>
        <mxCell id="bVoZvjcnVdqYxxAt59BH-17" value="&lt;h1 style=&quot;margin-top: 0px;&quot;&gt;Welcome, Lenny&lt;/h1&gt;&lt;p&gt;&lt;br&gt;&lt;/p&gt;" style="text;html=1;whiteSpace=wrap;overflow=hidden;rounded=0;" parent="1" vertex="1">
          <mxGeometry x="39" y="4042" width="263" height="54" as="geometry" />
        </mxCell>
        <mxCell id="bVoZvjcnVdqYxxAt59BH-18" value="Your Reports" style="html=1;shadow=0;dashed=0;shape=mxgraph.bootstrap.rect;strokeColor=none;fillColor=none;fontColor=#4D4D4D;align=left;spacingLeft=5;whiteSpace=wrap;rounded=0;fontSize=20;" parent="1" vertex="1">
          <mxGeometry x="53" y="4082" width="200" height="20" as="geometry" />
        </mxCell>
        <mxCell id="bVoZvjcnVdqYxxAt59BH-19" value="Search" style="html=1;shadow=0;dashed=0;shape=mxgraph.bootstrap.rrect;rSize=5;fontSize=14;fontColor=#6C767D;strokeColor=#CED4DA;fillColor=#ffffff;align=left;spacing=10;" parent="1" vertex="1">
          <mxGeometry x="399" y="4080" width="180" height="20.42" as="geometry" />
        </mxCell>
        <mxCell id="bVoZvjcnVdqYxxAt59BH-21" value="&lt;font style=&quot;font-size: 15px;&quot;&gt;New&lt;/font&gt;" style="text;strokeColor=none;fillColor=none;html=1;fontSize=24;fontStyle=1;verticalAlign=middle;align=center;fontColor=#660000;" parent="1" vertex="1">
          <mxGeometry x="84.5999999999998" y="4120" width="51" height="25" as="geometry" />
        </mxCell>
        <mxCell id="bVoZvjcnVdqYxxAt59BH-23" value="" style="rounded=0;whiteSpace=wrap;html=1;strokeColor=none;movable=1;resizable=1;rotatable=1;deletable=1;editable=1;locked=0;connectable=1;" parent="1" vertex="1">
          <mxGeometry x="1247" y="4042" width="1148" height="826" as="geometry" />
        </mxCell>
        <mxCell id="bVoZvjcnVdqYxxAt59BH-24" value="" style="html=1;shadow=0;dashed=0;shape=mxgraph.bootstrap.rect;fillColor=#222222;strokeColor=none;whiteSpace=wrap;rounded=0;fontSize=12;fontColor=#000000;align=center;" parent="1" vertex="1">
          <mxGeometry x="1246" y="3978" width="1150" height="63" as="geometry" />
        </mxCell>
        <mxCell id="bVoZvjcnVdqYxxAt59BH-25" value="Atlas" style="html=1;shadow=0;dashed=0;fillColor=none;strokeColor=none;shape=mxgraph.bootstrap.rect;fontColor=#999999;fontSize=14;whiteSpace=wrap;" parent="bVoZvjcnVdqYxxAt59BH-24" vertex="1">
          <mxGeometry width="115" height="40" as="geometry" />
        </mxCell>
        <mxCell id="bVoZvjcnVdqYxxAt59BH-26" value="Structures" style="html=1;shadow=0;dashed=0;shape=mxgraph.bootstrap.rect;fillColor=none;strokeColor=none;fontColor=#999999;spacingRight=30;whiteSpace=wrap;" parent="bVoZvjcnVdqYxxAt59BH-24" vertex="1">
          <mxGeometry x="115" width="129.375" height="40" as="geometry" />
        </mxCell>
        <mxCell id="bVoZvjcnVdqYxxAt59BH-27" value="Account" style="html=1;shadow=0;dashed=0;fillColor=none;strokeColor=none;shape=mxgraph.bootstrap.rect;fontColor=#999999;whiteSpace=wrap;" parent="bVoZvjcnVdqYxxAt59BH-24" vertex="1">
          <mxGeometry x="948.75" width="100.625" height="40" as="geometry" />
        </mxCell>
        <mxCell id="bVoZvjcnVdqYxxAt59BH-28" value="Log Out" style="html=1;shadow=0;dashed=0;fillColor=none;strokeColor=none;shape=mxgraph.bootstrap.rect;fontColor=#999999;whiteSpace=wrap;" parent="bVoZvjcnVdqYxxAt59BH-24" vertex="1">
          <mxGeometry x="1049.375" width="100.625" height="40" as="geometry" />
        </mxCell>
        <mxCell id="bVoZvjcnVdqYxxAt59BH-29" value="Reports" style="html=1;shadow=0;dashed=0;fillColor=#000000;strokeColor=none;shape=mxgraph.bootstrap.rect;fontColor=#FFFFFF;fontSize=14;whiteSpace=wrap;" parent="bVoZvjcnVdqYxxAt59BH-24" vertex="1">
          <mxGeometry x="245" y="1" width="115" height="40" as="geometry" />
        </mxCell>
        <mxCell id="bVoZvjcnVdqYxxAt59BH-30" value="" style="strokeWidth=1;html=1;shadow=0;dashed=0;shape=mxgraph.android.rrect;rSize=0;fillColor=#444444;strokeColor=none;" parent="bVoZvjcnVdqYxxAt59BH-24" vertex="1">
          <mxGeometry x="-1" y="43" width="1150" height="20" as="geometry" />
        </mxCell>
        <mxCell id="bVoZvjcnVdqYxxAt59BH-31" value="Home" style="strokeWidth=1;html=1;shadow=0;dashed=0;shape=mxgraph.android.anchor;fontStyle=1;fontColor=#ffffff;" parent="bVoZvjcnVdqYxxAt59BH-30" vertex="1">
          <mxGeometry width="95" height="20" as="geometry" />
        </mxCell>
        <mxCell id="bVoZvjcnVdqYxxAt59BH-32" value="&lt;div&gt;Jerry&#39;s office space planning repo...&lt;/div&gt;" style="strokeWidth=1;html=1;shadow=0;dashed=0;shape=mxgraph.android.rrect;rSize=0;fontStyle=1;fillColor=none;strokeColor=none;fontColor=#ffffff;" parent="bVoZvjcnVdqYxxAt59BH-30" vertex="1">
          <mxGeometry x="287.5" width="287.5" height="20" as="geometry" />
        </mxCell>
        <mxCell id="bVoZvjcnVdqYxxAt59BH-33" value="" style="strokeWidth=1;html=1;shadow=0;dashed=0;shape=mxgraph.android.rrect;rSize=0;fillColor=none;strokeColor=none;" parent="bVoZvjcnVdqYxxAt59BH-32" vertex="1">
          <mxGeometry x="102" y="17.69" width="287.5" height="2" as="geometry" />
        </mxCell>
        <mxCell id="bVoZvjcnVdqYxxAt59BH-34" value="" style="shape=mxgraph.sysml.x;aspect=fixed;fontColor=#FFFFFF;strokeColor=#FFFFFF;" parent="bVoZvjcnVdqYxxAt59BH-32" vertex="1">
          <mxGeometry x="276.5" y="5" width="8" height="8" as="geometry" />
        </mxCell>
        <mxCell id="bVoZvjcnVdqYxxAt59BH-35" value="" style="strokeWidth=1;html=1;shadow=0;dashed=0;shape=mxgraph.android.rrect;rSize=0;fillColor=#FF0000;strokeColor=none;" parent="bVoZvjcnVdqYxxAt59BH-32" vertex="1">
          <mxGeometry x="-39.5" y="-4" width="113.5" height="2" as="geometry" />
        </mxCell>
        <mxCell id="bVoZvjcnVdqYxxAt59BH-36" value="GRV Report" style="strokeWidth=1;html=1;shadow=0;dashed=0;shape=mxgraph.android.anchor;fontStyle=1;fontColor=#ffffff;" parent="bVoZvjcnVdqYxxAt59BH-30" vertex="1">
          <mxGeometry x="575" width="287.5" height="20" as="geometry" />
        </mxCell>
        <mxCell id="bVoZvjcnVdqYxxAt59BH-37" value="" style="strokeWidth=1;html=1;shadow=0;dashed=0;shape=mxgraph.android.rrect;rSize=0;fillColor=#FF0000;strokeColor=none;" parent="bVoZvjcnVdqYxxAt59BH-30" vertex="1">
          <mxGeometry x="100" y="16.67" width="202" height="2" as="geometry" />
        </mxCell>
        <mxCell id="bVoZvjcnVdqYxxAt59BH-38" value="Need Refinement" style="strokeWidth=1;html=1;shadow=0;dashed=0;shape=mxgraph.android.anchor;fontStyle=1;fontColor=#ffffff;" parent="bVoZvjcnVdqYxxAt59BH-30" vertex="1">
          <mxGeometry x="96.25" width="197.75" height="20" as="geometry" />
        </mxCell>
        <mxCell id="bVoZvjcnVdqYxxAt59BH-39" value="" style="shape=mxgraph.sysml.x;aspect=fixed;fontColor=#FFFFFF;strokeColor=#FFFFFF;" parent="bVoZvjcnVdqYxxAt59BH-30" vertex="1">
          <mxGeometry x="274" y="6" width="8" height="8" as="geometry" />
        </mxCell>
        <mxCell id="bVoZvjcnVdqYxxAt59BH-40" value="" style="shape=mxgraph.sysml.x;aspect=fixed;fontColor=#FFFFFF;strokeColor=#FFFFFF;" parent="bVoZvjcnVdqYxxAt59BH-30" vertex="1">
          <mxGeometry x="837" y="6" width="8" height="8" as="geometry" />
        </mxCell>
        <mxCell id="bVoZvjcnVdqYxxAt59BH-41" value="&lt;font style=&quot;font-size: 10px;&quot;&gt;JS&lt;/font&gt;" style="rounded=1;whiteSpace=wrap;html=1;arcSize=50;strokeColor=none;strokeWidth=1;fillColor=#006600;fontColor=#FFFFFF;whiteSpace=wrap;align=left;verticalAlign=middle;spacingLeft=0;fontStyle=1;fontSize=10;spacing=10;" parent="1" vertex="1">
          <mxGeometry x="740" y="4214" width="33" height="17" as="geometry" />
        </mxCell>
        <mxCell id="bVoZvjcnVdqYxxAt59BH-42" value="&lt;font style=&quot;font-size: 10px;&quot;&gt;DG&lt;/font&gt;" style="rounded=1;whiteSpace=wrap;html=1;arcSize=50;strokeColor=none;strokeWidth=1;fillColor=#4C0099;fontColor=#FFFFFF;whiteSpace=wrap;align=left;verticalAlign=middle;spacingLeft=0;fontStyle=1;fontSize=10;spacing=10;" parent="1" vertex="1">
          <mxGeometry x="740" y="4187.5" width="33" height="17" as="geometry" />
        </mxCell>
        <mxCell id="bVoZvjcnVdqYxxAt59BH-43" value="&lt;font style=&quot;font-size: 10px;&quot;&gt;DG&lt;/font&gt;" style="rounded=1;whiteSpace=wrap;html=1;arcSize=50;strokeColor=none;strokeWidth=1;fillColor=#4C0099;fontColor=#FFFFFF;whiteSpace=wrap;align=left;verticalAlign=middle;spacingLeft=0;fontStyle=1;fontSize=10;spacing=10;" parent="1" vertex="1">
          <mxGeometry x="785" y="4246.5" width="33" height="17" as="geometry" />
        </mxCell>
        <mxCell id="bVoZvjcnVdqYxxAt59BH-44" value="&lt;font style=&quot;font-size: 10px;&quot;&gt;LM&lt;/font&gt;" style="rounded=1;whiteSpace=wrap;html=1;arcSize=50;strokeColor=none;strokeWidth=1;fillColor=#4D4D4D;fontColor=#FFFFFF;whiteSpace=wrap;align=left;verticalAlign=middle;spacingLeft=0;fontStyle=1;fontSize=10;spacing=10;" parent="1" vertex="1">
          <mxGeometry x="740" y="4246.5" width="33" height="17" as="geometry" />
        </mxCell>
        <mxCell id="BWHabExfZm8nHCO_QBh_-19" value="" style="shape=image;verticalLabelPosition=bottom;labelBackgroundColor=default;verticalAlign=top;aspect=fixed;imageAspect=0;image=data:image/svg+xml,PHN2ZyB4bWxucz0iaHR0cDovL3d3dy53My5vcmcvMjAwMC9zdmciIHZpZXdCb3g9IjAgMCA0NDggNTEyIj48cGF0aCBkPSJNMzg0IDgwYzguOCAwIDE2IDcuMiAxNiAxNmwwIDMyMGMwIDguOC03LjIgMTYtMTYgMTZMNjQgNDMyYy04LjggMC0xNi03LjItMTYtMTZMNDggOTZjMC04LjggNy4yLTE2IDE2LTE2bDMyMCAwek02NCAzMkMyOC43IDMyIDAgNjAuNyAwIDk2TDAgNDE2YzAgMzUuMyAyOC43IDY0IDY0IDY0bDMyMCAwYzM1LjMgMCA2NC0yOC43IDY0LTY0bDAtMzIwYzAtMzUuMy0yOC43LTY0LTY0LTY0TDY0IDMyeiIgZmlsbD0iIzZjNzY3ZCIvPjwvc3ZnPg==;" vertex="1" parent="1">
          <mxGeometry x="112.96000000000004" y="3715.5" width="13.13" height="15" as="geometry" />
        </mxCell>
        <mxCell id="BWHabExfZm8nHCO_QBh_-40" value="" style="shape=image;verticalLabelPosition=bottom;labelBackgroundColor=default;verticalAlign=top;aspect=fixed;imageAspect=0;image=data:image/svg+xml,PHN2ZyB4bWxucz0iaHR0cDovL3d3dy53My5vcmcvMjAwMC9zdmciIHZpZXdCb3g9IjAgMCA1MTIgNTEyIj48cGF0aCBkPSJNMCA0MTZjMCAxNy43IDE0LjMgMzIgMzIgMzJsNTQuNyAwYzEyLjMgMjguMyA0MC41IDQ4IDczLjMgNDhzNjEtMTkuNyA3My4zLTQ4TDQ4MCA0NDhjMTcuNyAwIDMyLTE0LjMgMzItMzJzLTE0LjMtMzItMzItMzJsLTI0Ni43IDBjLTEyLjMtMjguMy00MC41LTQ4LTczLjMtNDhzLTYxIDE5LjctNzMuMyA0OEwzMiAzODRjLTE3LjcgMC0zMiAxNC4zLTMyIDMyem0xMjggMGEzMiAzMiAwIDEgMSA2NCAwIDMyIDMyIDAgMSAxIC02NCAwek0zMjAgMjU2YTMyIDMyIDAgMSAxIDY0IDAgMzIgMzIgMCAxIDEgLTY0IDB6bTMyLTgwYy0zMi44IDAtNjEgMTkuNy03My4zIDQ4TDMyIDIyNGMtMTcuNyAwLTMyIDE0LjMtMzIgMzJzMTQuMyAzMiAzMiAzMmwyNDYuNyAwYzEyLjMgMjguMyA0MC41IDQ4IDczLjMgNDhzNjEtMTkuNyA3My4zLTQ4bDU0LjcgMGMxNy43IDAgMzItMTQuMyAzMi0zMnMtMTQuMy0zMi0zMi0zMmwtNTQuNyAwYy0xMi4zLTI4LjMtNDAuNS00OC03My4zLTQ4ek0xOTIgMTI4YTMyIDMyIDAgMSAxIDAtNjQgMzIgMzIgMCAxIDEgMCA2NHptNzMuMy02NEMyNTMgMzUuNyAyMjQuOCAxNiAxOTIgMTZzLTYxIDE5LjctNzMuMyA0OEwzMiA2NEMxNC4zIDY0IDAgNzguMyAwIDk2czE0LjMgMzIgMzIgMzJsODYuNyAwYzEyLjMgMjguMyA0MC41IDQ4IDczLjMgNDhzNjEtMTkuNyA3My4zLTQ4TDQ4MCAxMjhjMTcuNyAwIDMyLTE0LjMgMzItMzJzLTE0LjMtMzItMzItMzJMMjY1LjMgNjR6IiBmaWxsPSIjNjYwMDAwIi8+PC9zdmc+;movable=1;resizable=1;rotatable=1;deletable=1;editable=1;locked=0;connectable=1;" vertex="1" parent="1">
          <mxGeometry x="78" y="4247.5" width="15" height="15" as="geometry" />
        </mxCell>
        <mxCell id="BWHabExfZm8nHCO_QBh_-41" value="" style="shape=image;verticalLabelPosition=bottom;labelBackgroundColor=default;verticalAlign=top;aspect=fixed;imageAspect=0;image=data:image/svg+xml,PHN2ZyB4bWxucz0iaHR0cDovL3d3dy53My5vcmcvMjAwMC9zdmciIHZpZXdCb3g9IjAgMCA0NDggNTEyIj48cGF0aCBkPSJNMjU2IDgwYzAtMTcuNy0xNC4zLTMyLTMyLTMycy0zMiAxNC4zLTMyIDMybDAgMTQ0TDQ4IDIyNGMtMTcuNyAwLTMyIDE0LjMtMzIgMzJzMTQuMyAzMiAzMiAzMmwxNDQgMCAwIDE0NGMwIDE3LjcgMTQuMyAzMiAzMiAzMnMzMi0xNC4zIDMyLTMybDAtMTQ0IDE0NCAwYzE3LjcgMCAzMi0xNC4zIDMyLTMycy0xNC4zLTMyLTMyLTMybC0xNDQgMCAwLTE0NHoiIGZpbGw9IiM2NjAwMDAiLz48L3N2Zz4=;" vertex="1" parent="1">
          <mxGeometry x="74.99999999999955" y="4125" width="13.13" height="15" as="geometry" />
        </mxCell>
        <mxCell id="BWHabExfZm8nHCO_QBh_-45" value="" style="shape=image;verticalLabelPosition=bottom;labelBackgroundColor=default;verticalAlign=top;aspect=fixed;imageAspect=0;image=data:image/svg+xml,PHN2ZyB4bWxucz0iaHR0cDovL3d3dy53My5vcmcvMjAwMC9zdmciIHZpZXdCb3g9IjAgMCAzODQgNTEyIj48cGF0aCBkPSJNMzQyLjYgMTUwLjZjMTIuNS0xMi41IDEyLjUtMzIuOCAwLTQ1LjNzLTMyLjgtMTIuNS00NS4zIDBMMTkyIDIxMC43IDg2LjYgMTA1LjRjLTEyLjUtMTIuNS0zMi44LTEyLjUtNDUuMyAwcy0xMi41IDMyLjggMCA0NS4zTDE0Ni43IDI1NiA0MS40IDM2MS40Yy0xMi41IDEyLjUtMTIuNSAzMi44IDAgNDUuM3MzMi44IDEyLjUgNDUuMyAwTDE5MiAzMDEuMyAyOTcuNCA0MDYuNmMxMi41IDEyLjUgMzIuOCAxMi41IDQ1LjMgMHMxMi41LTMyLjggMC00NS4zTDIzNy4zIDI1NiAzNDIuNiAxNTAuNnoiIGZpbGw9IiM2NjAwMDAiLz48L3N2Zz4=;" vertex="1" parent="1">
          <mxGeometry x="121" y="4245" width="15" height="20" as="geometry" />
        </mxCell>
        <mxCell id="BWHabExfZm8nHCO_QBh_-46" value="" style="shape=image;verticalLabelPosition=bottom;labelBackgroundColor=default;verticalAlign=top;aspect=fixed;imageAspect=0;image=data:image/svg+xml,PHN2ZyB4bWxucz0iaHR0cDovL3d3dy53My5vcmcvMjAwMC9zdmciIHZpZXdCb3g9IjAgMCA0NDggNTEyIj48cGF0aCBkPSJNMzg0IDMzNmwtMTkyIDBjLTguOCAwLTE2LTcuMi0xNi0xNmwwLTI1NmMwLTguOCA3LjItMTYgMTYtMTZsMTQwLjEgMEw0MDAgMTE1LjkgNDAwIDMyMGMwIDguOC03LjIgMTYtMTYgMTZ6TTE5MiAzODRsMTkyIDBjMzUuMyAwIDY0LTI4LjcgNjQtNjRsMC0yMDQuMWMwLTEyLjctNS4xLTI0LjktMTQuMS0zMy45TDM2Ni4xIDE0LjFjLTktOS0yMS4yLTE0LjEtMzMuOS0xNC4xTDE5MiAwYy0zNS4zIDAtNjQgMjguNy02NCA2NGwwIDI1NmMwIDM1LjMgMjguNyA2NCA2NCA2NHpNNjQgMTI4Yy0zNS4zIDAtNjQgMjguNy02NCA2NEwwIDQ0OGMwIDM1LjMgMjguNyA2NCA2NCA2NGwxOTIgMGMzNS4zIDAgNjQtMjguNyA2NC02NGwwLTMyLTQ4IDAgMCAzMmMwIDguOC03LjIgMTYtMTYgMTZMNjQgNDY0Yy04LjggMC0xNi03LjItMTYtMTZsMC0yNTZjMC04LjggNy4yLTE2IDE2LTE2bDMyIDAgMC00OC0zMiAweiIgZmlsbD0iIzY2MDAwMCIvPjwvc3ZnPg==;" vertex="1" parent="1">
          <mxGeometry x="100.82999999999998" y="4247.5" width="13.13" height="15" as="geometry" />
        </mxCell>
        <mxCell id="BWHabExfZm8nHCO_QBh_-49" value="" style="shape=image;verticalLabelPosition=bottom;labelBackgroundColor=default;verticalAlign=top;aspect=fixed;imageAspect=0;image=data:image/svg+xml,PHN2ZyB4bWxucz0iaHR0cDovL3d3dy53My5vcmcvMjAwMC9zdmciIHZpZXdCb3g9IjAgMCA1MTIgNTEyIj48cGF0aCBkPSJNMCA0MTZjMCAxNy43IDE0LjMgMzIgMzIgMzJsNTQuNyAwYzEyLjMgMjguMyA0MC41IDQ4IDczLjMgNDhzNjEtMTkuNyA3My4zLTQ4TDQ4MCA0NDhjMTcuNyAwIDMyLTE0LjMgMzItMzJzLTE0LjMtMzItMzItMzJsLTI0Ni43IDBjLTEyLjMtMjguMy00MC41LTQ4LTczLjMtNDhzLTYxIDE5LjctNzMuMyA0OEwzMiAzODRjLTE3LjcgMC0zMiAxNC4zLTMyIDMyem0xMjggMGEzMiAzMiAwIDEgMSA2NCAwIDMyIDMyIDAgMSAxIC02NCAwek0zMjAgMjU2YTMyIDMyIDAgMSAxIDY0IDAgMzIgMzIgMCAxIDEgLTY0IDB6bTMyLTgwYy0zMi44IDAtNjEgMTkuNy03My4zIDQ4TDMyIDIyNGMtMTcuNyAwLTMyIDE0LjMtMzIgMzJzMTQuMyAzMiAzMiAzMmwyNDYuNyAwYzEyLjMgMjguMyA0MC41IDQ4IDczLjMgNDhzNjEtMTkuNyA3My4zLTQ4bDU0LjcgMGMxNy43IDAgMzItMTQuMyAzMi0zMnMtMTQuMy0zMi0zMi0zMmwtNTQuNyAwYy0xMi4zLTI4LjMtNDAuNS00OC03My4zLTQ4ek0xOTIgMTI4YTMyIDMyIDAgMSAxIDAtNjQgMzIgMzIgMCAxIDEgMCA2NHptNzMuMy02NEMyNTMgMzUuNyAyMjQuOCAxNiAxOTIgMTZzLTYxIDE5LjctNzMuMyA0OEwzMiA2NEMxNC4zIDY0IDAgNzguMyAwIDk2czE0LjMgMzIgMzIgMzJsODYuNyAwYzEyLjMgMjguMyA0MC41IDQ4IDczLjMgNDhzNjEtMTkuNyA3My4zLTQ4TDQ4MCAxMjhjMTcuNyAwIDMyLTE0LjMgMzItMzJzLTE0LjMtMzItMzItMzJMMjY1LjMgNjR6IiBmaWxsPSIjNjYwMDAwIi8+PC9zdmc+;movable=1;resizable=1;rotatable=1;deletable=1;editable=1;locked=0;connectable=1;" vertex="1" parent="1">
          <mxGeometry x="78.39" y="4218.5" width="15" height="15" as="geometry" />
        </mxCell>
        <mxCell id="BWHabExfZm8nHCO_QBh_-50" value="" style="shape=image;verticalLabelPosition=bottom;labelBackgroundColor=default;verticalAlign=top;aspect=fixed;imageAspect=0;image=data:image/svg+xml,PHN2ZyB4bWxucz0iaHR0cDovL3d3dy53My5vcmcvMjAwMC9zdmciIHZpZXdCb3g9IjAgMCAzODQgNTEyIj48cGF0aCBkPSJNMzQyLjYgMTUwLjZjMTIuNS0xMi41IDEyLjUtMzIuOCAwLTQ1LjNzLTMyLjgtMTIuNS00NS4zIDBMMTkyIDIxMC43IDg2LjYgMTA1LjRjLTEyLjUtMTIuNS0zMi44LTEyLjUtNDUuMyAwcy0xMi41IDMyLjggMCA0NS4zTDE0Ni43IDI1NiA0MS40IDM2MS40Yy0xMi41IDEyLjUtMTIuNSAzMi44IDAgNDUuM3MzMi44IDEyLjUgNDUuMyAwTDE5MiAzMDEuMyAyOTcuNCA0MDYuNmMxMi41IDEyLjUgMzIuOCAxMi41IDQ1LjMgMHMxMi41LTMyLjggMC00NS4zTDIzNy4zIDI1NiAzNDIuNiAxNTAuNnoiIGZpbGw9IiM2NjAwMDAiLz48L3N2Zz4=;" vertex="1" parent="1">
          <mxGeometry x="121.39" y="4216" width="15" height="20" as="geometry" />
        </mxCell>
        <mxCell id="BWHabExfZm8nHCO_QBh_-51" value="" style="shape=image;verticalLabelPosition=bottom;labelBackgroundColor=default;verticalAlign=top;aspect=fixed;imageAspect=0;image=data:image/svg+xml,PHN2ZyB4bWxucz0iaHR0cDovL3d3dy53My5vcmcvMjAwMC9zdmciIHZpZXdCb3g9IjAgMCA0NDggNTEyIj48cGF0aCBkPSJNMzg0IDMzNmwtMTkyIDBjLTguOCAwLTE2LTcuMi0xNi0xNmwwLTI1NmMwLTguOCA3LjItMTYgMTYtMTZsMTQwLjEgMEw0MDAgMTE1LjkgNDAwIDMyMGMwIDguOC03LjIgMTYtMTYgMTZ6TTE5MiAzODRsMTkyIDBjMzUuMyAwIDY0LTI4LjcgNjQtNjRsMC0yMDQuMWMwLTEyLjctNS4xLTI0LjktMTQuMS0zMy45TDM2Ni4xIDE0LjFjLTktOS0yMS4yLTE0LjEtMzMuOS0xNC4xTDE5MiAwYy0zNS4zIDAtNjQgMjguNy02NCA2NGwwIDI1NmMwIDM1LjMgMjguNyA2NCA2NCA2NHpNNjQgMTI4Yy0zNS4zIDAtNjQgMjguNy02NCA2NEwwIDQ0OGMwIDM1LjMgMjguNyA2NCA2NCA2NGwxOTIgMGMzNS4zIDAgNjQtMjguNyA2NC02NGwwLTMyLTQ4IDAgMCAzMmMwIDguOC03LjIgMTYtMTYgMTZMNjQgNDY0Yy04LjggMC0xNi03LjItMTYtMTZsMC0yNTZjMC04LjggNy4yLTE2IDE2LTE2bDMyIDAgMC00OC0zMiAweiIgZmlsbD0iIzY2MDAwMCIvPjwvc3ZnPg==;" vertex="1" parent="1">
          <mxGeometry x="101.21999999999998" y="4218.5" width="13.13" height="15" as="geometry" />
        </mxCell>
        <mxCell id="BWHabExfZm8nHCO_QBh_-52" value="" style="shape=image;verticalLabelPosition=bottom;labelBackgroundColor=default;verticalAlign=top;aspect=fixed;imageAspect=0;image=data:image/svg+xml,PHN2ZyB4bWxucz0iaHR0cDovL3d3dy53My5vcmcvMjAwMC9zdmciIHZpZXdCb3g9IjAgMCA1MTIgNTEyIj48cGF0aCBkPSJNMCA0MTZjMCAxNy43IDE0LjMgMzIgMzIgMzJsNTQuNyAwYzEyLjMgMjguMyA0MC41IDQ4IDczLjMgNDhzNjEtMTkuNyA3My4zLTQ4TDQ4MCA0NDhjMTcuNyAwIDMyLTE0LjMgMzItMzJzLTE0LjMtMzItMzItMzJsLTI0Ni43IDBjLTEyLjMtMjguMy00MC41LTQ4LTczLjMtNDhzLTYxIDE5LjctNzMuMyA0OEwzMiAzODRjLTE3LjcgMC0zMiAxNC4zLTMyIDMyem0xMjggMGEzMiAzMiAwIDEgMSA2NCAwIDMyIDMyIDAgMSAxIC02NCAwek0zMjAgMjU2YTMyIDMyIDAgMSAxIDY0IDAgMzIgMzIgMCAxIDEgLTY0IDB6bTMyLTgwYy0zMi44IDAtNjEgMTkuNy03My4zIDQ4TDMyIDIyNGMtMTcuNyAwLTMyIDE0LjMtMzIgMzJzMTQuMyAzMiAzMiAzMmwyNDYuNyAwYzEyLjMgMjguMyA0MC41IDQ4IDczLjMgNDhzNjEtMTkuNyA3My4zLTQ4bDU0LjcgMGMxNy43IDAgMzItMTQuMyAzMi0zMnMtMTQuMy0zMi0zMi0zMmwtNTQuNyAwYy0xMi4zLTI4LjMtNDAuNS00OC03My4zLTQ4ek0xOTIgMTI4YTMyIDMyIDAgMSAxIDAtNjQgMzIgMzIgMCAxIDEgMCA2NHptNzMuMy02NEMyNTMgMzUuNyAyMjQuOCAxNiAxOTIgMTZzLTYxIDE5LjctNzMuMyA0OEwzMiA2NEMxNC4zIDY0IDAgNzguMyAwIDk2czE0LjMgMzIgMzIgMzJsODYuNyAwYzEyLjMgMjguMyA0MC41IDQ4IDczLjMgNDhzNjEtMTkuNyA3My4zLTQ4TDQ4MCAxMjhjMTcuNyAwIDMyLTE0LjMgMzItMzJzLTE0LjMtMzItMzItMzJMMjY1LjMgNjR6IiBmaWxsPSIjNjYwMDAwIi8+PC9zdmc+;movable=1;resizable=1;rotatable=1;deletable=1;editable=1;locked=0;connectable=1;" vertex="1" parent="1">
          <mxGeometry x="78.39" y="4188.5" width="15" height="15" as="geometry" />
        </mxCell>
        <mxCell id="BWHabExfZm8nHCO_QBh_-53" value="" style="shape=image;verticalLabelPosition=bottom;labelBackgroundColor=default;verticalAlign=top;aspect=fixed;imageAspect=0;image=data:image/svg+xml,PHN2ZyB4bWxucz0iaHR0cDovL3d3dy53My5vcmcvMjAwMC9zdmciIHZpZXdCb3g9IjAgMCAzODQgNTEyIj48cGF0aCBkPSJNMzQyLjYgMTUwLjZjMTIuNS0xMi41IDEyLjUtMzIuOCAwLTQ1LjNzLTMyLjgtMTIuNS00NS4zIDBMMTkyIDIxMC43IDg2LjYgMTA1LjRjLTEyLjUtMTIuNS0zMi44LTEyLjUtNDUuMyAwcy0xMi41IDMyLjggMCA0NS4zTDE0Ni43IDI1NiA0MS40IDM2MS40Yy0xMi41IDEyLjUtMTIuNSAzMi44IDAgNDUuM3MzMi44IDEyLjUgNDUuMyAwTDE5MiAzMDEuMyAyOTcuNCA0MDYuNmMxMi41IDEyLjUgMzIuOCAxMi41IDQ1LjMgMHMxMi41LTMyLjggMC00NS4zTDIzNy4zIDI1NiAzNDIuNiAxNTAuNnoiIGZpbGw9IiM2NjAwMDAiLz48L3N2Zz4=;" vertex="1" parent="1">
          <mxGeometry x="121.39" y="4186" width="15" height="20" as="geometry" />
        </mxCell>
        <mxCell id="BWHabExfZm8nHCO_QBh_-54" value="" style="shape=image;verticalLabelPosition=bottom;labelBackgroundColor=default;verticalAlign=top;aspect=fixed;imageAspect=0;image=data:image/svg+xml,PHN2ZyB4bWxucz0iaHR0cDovL3d3dy53My5vcmcvMjAwMC9zdmciIHZpZXdCb3g9IjAgMCA0NDggNTEyIj48cGF0aCBkPSJNMzg0IDMzNmwtMTkyIDBjLTguOCAwLTE2LTcuMi0xNi0xNmwwLTI1NmMwLTguOCA3LjItMTYgMTYtMTZsMTQwLjEgMEw0MDAgMTE1LjkgNDAwIDMyMGMwIDguOC03LjIgMTYtMTYgMTZ6TTE5MiAzODRsMTkyIDBjMzUuMyAwIDY0LTI4LjcgNjQtNjRsMC0yMDQuMWMwLTEyLjctNS4xLTI0LjktMTQuMS0zMy45TDM2Ni4xIDE0LjFjLTktOS0yMS4yLTE0LjEtMzMuOS0xNC4xTDE5MiAwYy0zNS4zIDAtNjQgMjguNy02NCA2NGwwIDI1NmMwIDM1LjMgMjguNyA2NCA2NCA2NHpNNjQgMTI4Yy0zNS4zIDAtNjQgMjguNy02NCA2NEwwIDQ0OGMwIDM1LjMgMjguNyA2NCA2NCA2NGwxOTIgMGMzNS4zIDAgNjQtMjguNyA2NC02NGwwLTMyLTQ4IDAgMCAzMmMwIDguOC03LjIgMTYtMTYgMTZMNjQgNDY0Yy04LjggMC0xNi03LjItMTYtMTZsMC0yNTZjMC04LjggNy4yLTE2IDE2LTE2bDMyIDAgMC00OC0zMiAweiIgZmlsbD0iIzY2MDAwMCIvPjwvc3ZnPg==;" vertex="1" parent="1">
          <mxGeometry x="101.21999999999998" y="4188.5" width="13.13" height="15" as="geometry" />
        </mxCell>
      </root>
    </mxGraphModel>
  </diagram>
  <diagram id="e_QgcTQTK1OTsnruN1rC" name="export">
    <mxGraphModel dx="1221" dy="-2583" grid="1" gridSize="10" guides="1" tooltips="1" connect="1" arrows="1" fold="1" page="1" pageScale="1" pageWidth="850" pageHeight="1100" math="0" shadow="0">
      <root>
        <mxCell id="0" />
        <mxCell id="1" parent="0" />
        <mxCell id="yc7nGBEdVK8mMsmqjUh9-1" value="" style="rounded=0;whiteSpace=wrap;html=1;strokeColor=none;movable=0;resizable=0;rotatable=0;deletable=0;editable=0;locked=1;connectable=0;" vertex="1" parent="1">
          <mxGeometry x="33" y="4042" width="1148" height="826" as="geometry" />
        </mxCell>
        <mxCell id="yc7nGBEdVK8mMsmqjUh9-2" value="" style="shape=table;startSize=0;container=1;collapsible=0;childLayout=tableLayout;fontSize=13;align=left;spacingLeft=5;spacing=0;" vertex="1" parent="1">
          <mxGeometry x="75" y="4150" width="1055" height="120" as="geometry" />
        </mxCell>
        <mxCell id="yc7nGBEdVK8mMsmqjUh9-3" value="" style="shape=tableRow;horizontal=0;startSize=0;swimlaneHead=0;swimlaneBody=0;strokeColor=inherit;top=0;left=0;bottom=0;right=0;collapsible=0;dropTarget=0;fillColor=none;points=[[0,0.5],[1,0.5]];portConstraint=eastwest;fontSize=13;align=left;spacingLeft=5;spacing=0;" vertex="1" parent="yc7nGBEdVK8mMsmqjUh9-2">
          <mxGeometry width="1055" height="30" as="geometry" />
        </mxCell>
        <mxCell id="yc7nGBEdVK8mMsmqjUh9-4" value="Report" style="shape=partialRectangle;html=1;whiteSpace=wrap;connectable=0;strokeColor=inherit;overflow=hidden;fillColor=#660000;top=0;left=0;bottom=0;right=0;pointerEvents=1;fontSize=13;align=left;spacingLeft=25;spacing=0;fontColor=#FFFFFF;fontStyle=1" vertex="1" parent="yc7nGBEdVK8mMsmqjUh9-3">
          <mxGeometry width="275" height="30" as="geometry">
            <mxRectangle width="275" height="30" as="alternateBounds" />
          </mxGeometry>
        </mxCell>
        <mxCell id="yc7nGBEdVK8mMsmqjUh9-5" value="Description" style="shape=partialRectangle;html=1;whiteSpace=wrap;connectable=0;strokeColor=inherit;overflow=hidden;fillColor=#660000;top=0;left=0;bottom=0;right=0;pointerEvents=1;fontSize=13;align=left;spacingLeft=5;spacing=0;fontColor=#FFFFFF;fontStyle=1" vertex="1" parent="yc7nGBEdVK8mMsmqjUh9-3">
          <mxGeometry x="275" width="380" height="30" as="geometry">
            <mxRectangle width="380" height="30" as="alternateBounds" />
          </mxGeometry>
        </mxCell>
        <mxCell id="yc7nGBEdVK8mMsmqjUh9-6" value="Shared with" style="shape=partialRectangle;html=1;whiteSpace=wrap;connectable=0;strokeColor=inherit;overflow=hidden;fillColor=#660000;top=0;left=0;bottom=0;right=0;pointerEvents=1;fontSize=13;align=left;spacingLeft=5;spacing=0;fontColor=#FFFFFF;fontStyle=1" vertex="1" parent="yc7nGBEdVK8mMsmqjUh9-3">
          <mxGeometry x="655" width="150" height="30" as="geometry">
            <mxRectangle width="150" height="30" as="alternateBounds" />
          </mxGeometry>
        </mxCell>
        <mxCell id="yc7nGBEdVK8mMsmqjUh9-7" value="Last Run" style="shape=partialRectangle;html=1;whiteSpace=wrap;connectable=0;strokeColor=inherit;overflow=hidden;fillColor=#660000;top=0;left=0;bottom=0;right=0;pointerEvents=1;fontSize=13;align=left;spacingLeft=5;spacing=0;fontColor=#FFFFFF;fontStyle=1" vertex="1" parent="yc7nGBEdVK8mMsmqjUh9-3">
          <mxGeometry x="805" width="250" height="30" as="geometry">
            <mxRectangle width="250" height="30" as="alternateBounds" />
          </mxGeometry>
        </mxCell>
        <mxCell id="yc7nGBEdVK8mMsmqjUh9-8" value="" style="shape=tableRow;horizontal=0;startSize=0;swimlaneHead=0;swimlaneBody=0;strokeColor=inherit;top=0;left=0;bottom=0;right=0;collapsible=0;dropTarget=0;fillColor=none;points=[[0,0.5],[1,0.5]];portConstraint=eastwest;fontSize=13;align=left;spacingLeft=5;spacing=0;" vertex="1" parent="yc7nGBEdVK8mMsmqjUh9-2">
          <mxGeometry y="30" width="1055" height="30" as="geometry" />
        </mxCell>
        <mxCell id="yc7nGBEdVK8mMsmqjUh9-9" value="Needs Refinement" style="shape=partialRectangle;html=1;whiteSpace=wrap;connectable=0;strokeColor=inherit;overflow=hidden;fillColor=none;top=0;left=0;bottom=0;right=0;pointerEvents=1;fontSize=13;align=left;spacingLeft=64;spacing=0;" vertex="1" parent="yc7nGBEdVK8mMsmqjUh9-8">
          <mxGeometry width="275" height="30" as="geometry">
            <mxRectangle width="275" height="30" as="alternateBounds" />
          </mxGeometry>
        </mxCell>
        <mxCell id="yc7nGBEdVK8mMsmqjUh9-10" value="Items with the refinement tag" style="shape=partialRectangle;html=1;whiteSpace=wrap;connectable=0;strokeColor=inherit;overflow=hidden;fillColor=none;top=0;left=0;bottom=0;right=0;pointerEvents=1;fontSize=13;align=left;spacingLeft=5;spacing=0;" vertex="1" parent="yc7nGBEdVK8mMsmqjUh9-8">
          <mxGeometry x="275" width="380" height="30" as="geometry">
            <mxRectangle width="380" height="30" as="alternateBounds" />
          </mxGeometry>
        </mxCell>
        <mxCell id="yc7nGBEdVK8mMsmqjUh9-11" value="" style="shape=partialRectangle;html=1;whiteSpace=wrap;connectable=0;strokeColor=inherit;overflow=hidden;fillColor=none;top=0;left=0;bottom=0;right=0;pointerEvents=1;fontSize=13;align=left;spacingLeft=5;spacing=0;" vertex="1" parent="yc7nGBEdVK8mMsmqjUh9-8">
          <mxGeometry x="655" width="150" height="30" as="geometry">
            <mxRectangle width="150" height="30" as="alternateBounds" />
          </mxGeometry>
        </mxCell>
        <mxCell id="yc7nGBEdVK8mMsmqjUh9-12" style="shape=partialRectangle;html=1;whiteSpace=wrap;connectable=0;strokeColor=inherit;overflow=hidden;fillColor=none;top=0;left=0;bottom=0;right=0;pointerEvents=1;fontSize=13;align=left;spacingLeft=5;spacing=0;" vertex="1" parent="yc7nGBEdVK8mMsmqjUh9-8">
          <mxGeometry x="805" width="250" height="30" as="geometry">
            <mxRectangle width="250" height="30" as="alternateBounds" />
          </mxGeometry>
        </mxCell>
        <mxCell id="yc7nGBEdVK8mMsmqjUh9-13" value="" style="shape=tableRow;horizontal=0;startSize=0;swimlaneHead=0;swimlaneBody=0;strokeColor=inherit;top=0;left=0;bottom=0;right=0;collapsible=0;dropTarget=0;fillColor=none;points=[[0,0.5],[1,0.5]];portConstraint=eastwest;fontSize=13;align=left;spacingLeft=5;spacing=0;" vertex="1" parent="yc7nGBEdVK8mMsmqjUh9-2">
          <mxGeometry y="60" width="1055" height="30" as="geometry" />
        </mxCell>
        <mxCell id="yc7nGBEdVK8mMsmqjUh9-14" value="Jerry&#39;s Office Report" style="shape=partialRectangle;html=1;whiteSpace=wrap;connectable=0;strokeColor=inherit;overflow=hidden;fillColor=none;top=0;left=0;bottom=0;right=0;pointerEvents=1;fontSize=13;align=left;spacingLeft=64;spacing=0;" vertex="1" parent="yc7nGBEdVK8mMsmqjUh9-13">
          <mxGeometry width="275" height="30" as="geometry">
            <mxRectangle width="275" height="30" as="alternateBounds" />
          </mxGeometry>
        </mxCell>
        <mxCell id="yc7nGBEdVK8mMsmqjUh9-15" value="Mechanical Engineers in Atlanta" style="shape=partialRectangle;html=1;whiteSpace=wrap;connectable=0;strokeColor=inherit;overflow=hidden;fillColor=none;top=0;left=0;bottom=0;right=0;pointerEvents=1;fontSize=13;align=left;spacingLeft=5;spacing=0;" vertex="1" parent="yc7nGBEdVK8mMsmqjUh9-13">
          <mxGeometry x="275" width="380" height="30" as="geometry">
            <mxRectangle width="380" height="30" as="alternateBounds" />
          </mxGeometry>
        </mxCell>
        <mxCell id="yc7nGBEdVK8mMsmqjUh9-16" value="" style="shape=partialRectangle;html=1;whiteSpace=wrap;connectable=0;strokeColor=inherit;overflow=hidden;fillColor=none;top=0;left=0;bottom=0;right=0;pointerEvents=1;fontSize=13;align=left;spacingLeft=5;spacing=0;" vertex="1" parent="yc7nGBEdVK8mMsmqjUh9-13">
          <mxGeometry x="655" width="150" height="30" as="geometry">
            <mxRectangle width="150" height="30" as="alternateBounds" />
          </mxGeometry>
        </mxCell>
        <mxCell id="yc7nGBEdVK8mMsmqjUh9-17" style="shape=partialRectangle;html=1;whiteSpace=wrap;connectable=0;strokeColor=inherit;overflow=hidden;fillColor=none;top=0;left=0;bottom=0;right=0;pointerEvents=1;fontSize=13;align=left;spacingLeft=5;spacing=0;" vertex="1" parent="yc7nGBEdVK8mMsmqjUh9-13">
          <mxGeometry x="805" width="250" height="30" as="geometry">
            <mxRectangle width="250" height="30" as="alternateBounds" />
          </mxGeometry>
        </mxCell>
        <mxCell id="yc7nGBEdVK8mMsmqjUh9-18" style="shape=tableRow;horizontal=0;startSize=0;swimlaneHead=0;swimlaneBody=0;strokeColor=inherit;top=0;left=0;bottom=0;right=0;collapsible=0;dropTarget=0;fillColor=none;points=[[0,0.5],[1,0.5]];portConstraint=eastwest;fontSize=13;align=left;spacingLeft=5;spacing=0;" vertex="1" parent="yc7nGBEdVK8mMsmqjUh9-2">
          <mxGeometry y="90" width="1055" height="30" as="geometry" />
        </mxCell>
        <mxCell id="yc7nGBEdVK8mMsmqjUh9-19" value="Don&#39;s Daily Diff" style="shape=partialRectangle;html=1;whiteSpace=wrap;connectable=0;strokeColor=inherit;overflow=hidden;fillColor=none;top=0;left=0;bottom=0;right=0;pointerEvents=1;fontSize=13;align=left;spacingLeft=64;spacing=0;" vertex="1" parent="yc7nGBEdVK8mMsmqjUh9-18">
          <mxGeometry width="275" height="30" as="geometry">
            <mxRectangle width="275" height="30" as="alternateBounds" />
          </mxGeometry>
        </mxCell>
        <mxCell id="yc7nGBEdVK8mMsmqjUh9-20" value="Daily difference report on the GRV project" style="shape=partialRectangle;html=1;whiteSpace=wrap;connectable=0;strokeColor=inherit;overflow=hidden;fillColor=none;top=0;left=0;bottom=0;right=0;pointerEvents=1;fontSize=13;align=left;spacingLeft=5;spacing=0;" vertex="1" parent="yc7nGBEdVK8mMsmqjUh9-18">
          <mxGeometry x="275" width="380" height="30" as="geometry">
            <mxRectangle width="380" height="30" as="alternateBounds" />
          </mxGeometry>
        </mxCell>
        <mxCell id="yc7nGBEdVK8mMsmqjUh9-21" style="shape=partialRectangle;html=1;whiteSpace=wrap;connectable=0;strokeColor=inherit;overflow=hidden;fillColor=none;top=0;left=0;bottom=0;right=0;pointerEvents=1;fontSize=13;align=left;spacingLeft=5;spacing=0;" vertex="1" parent="yc7nGBEdVK8mMsmqjUh9-18">
          <mxGeometry x="655" width="150" height="30" as="geometry">
            <mxRectangle width="150" height="30" as="alternateBounds" />
          </mxGeometry>
        </mxCell>
        <mxCell id="yc7nGBEdVK8mMsmqjUh9-22" style="shape=partialRectangle;html=1;whiteSpace=wrap;connectable=0;strokeColor=inherit;overflow=hidden;fillColor=none;top=0;left=0;bottom=0;right=0;pointerEvents=1;fontSize=13;align=left;spacingLeft=5;spacing=0;" vertex="1" parent="yc7nGBEdVK8mMsmqjUh9-18">
          <mxGeometry x="805" width="250" height="30" as="geometry">
            <mxRectangle width="250" height="30" as="alternateBounds" />
          </mxGeometry>
        </mxCell>
        <mxCell id="yc7nGBEdVK8mMsmqjUh9-23" value="" style="html=1;shadow=0;dashed=0;shape=mxgraph.bootstrap.rect;fillColor=#222222;strokeColor=none;whiteSpace=wrap;rounded=0;fontSize=12;fontColor=#000000;align=center;" vertex="1" parent="1">
          <mxGeometry x="32" y="3978" width="1150" height="41" as="geometry" />
        </mxCell>
        <mxCell id="yc7nGBEdVK8mMsmqjUh9-24" value="Atlas" style="html=1;shadow=0;dashed=0;fillColor=none;strokeColor=none;shape=mxgraph.bootstrap.rect;fontColor=#999999;fontSize=14;whiteSpace=wrap;" vertex="1" parent="yc7nGBEdVK8mMsmqjUh9-23">
          <mxGeometry width="115" height="40" as="geometry" />
        </mxCell>
        <mxCell id="yc7nGBEdVK8mMsmqjUh9-25" value="Structures" style="html=1;shadow=0;dashed=0;shape=mxgraph.bootstrap.rect;fillColor=none;strokeColor=none;fontColor=#999999;spacingRight=30;whiteSpace=wrap;" vertex="1" parent="yc7nGBEdVK8mMsmqjUh9-23">
          <mxGeometry x="115" width="129.375" height="40" as="geometry" />
        </mxCell>
        <mxCell id="yc7nGBEdVK8mMsmqjUh9-26" value="Account" style="html=1;shadow=0;dashed=0;fillColor=none;strokeColor=none;shape=mxgraph.bootstrap.rect;fontColor=#999999;whiteSpace=wrap;" vertex="1" parent="yc7nGBEdVK8mMsmqjUh9-23">
          <mxGeometry x="948.75" width="100.625" height="40" as="geometry" />
        </mxCell>
        <mxCell id="yc7nGBEdVK8mMsmqjUh9-27" value="Log Out" style="html=1;shadow=0;dashed=0;fillColor=none;strokeColor=none;shape=mxgraph.bootstrap.rect;fontColor=#999999;whiteSpace=wrap;" vertex="1" parent="yc7nGBEdVK8mMsmqjUh9-23">
          <mxGeometry x="1049.375" width="100.625" height="40" as="geometry" />
        </mxCell>
        <mxCell id="yc7nGBEdVK8mMsmqjUh9-28" value="Reports" style="html=1;shadow=0;dashed=0;fillColor=#000000;strokeColor=none;shape=mxgraph.bootstrap.rect;fontColor=#FFFFFF;fontSize=14;whiteSpace=wrap;" vertex="1" parent="yc7nGBEdVK8mMsmqjUh9-23">
          <mxGeometry x="245" y="1" width="115" height="40" as="geometry" />
        </mxCell>
        <mxCell id="yc7nGBEdVK8mMsmqjUh9-29" value="" style="strokeWidth=1;html=1;shadow=0;dashed=0;shape=mxgraph.android.rrect;rSize=0;fillColor=#444444;strokeColor=none;" vertex="1" parent="1">
          <mxGeometry x="32" y="4018" width="1150" height="20" as="geometry" />
        </mxCell>
        <mxCell id="yc7nGBEdVK8mMsmqjUh9-30" value="Home" style="strokeWidth=1;html=1;shadow=0;dashed=0;shape=mxgraph.android.anchor;fontStyle=1;fontColor=#ffffff;" vertex="1" parent="yc7nGBEdVK8mMsmqjUh9-29">
          <mxGeometry width="95" height="20" as="geometry" />
        </mxCell>
        <mxCell id="yc7nGBEdVK8mMsmqjUh9-31" value="" style="strokeWidth=1;html=1;shadow=0;dashed=0;shape=mxgraph.android.rrect;rSize=0;fontStyle=1;fillColor=none;strokeColor=none;fontColor=#ffffff;" vertex="1" parent="yc7nGBEdVK8mMsmqjUh9-29">
          <mxGeometry x="287.5" width="287.5" height="20" as="geometry" />
        </mxCell>
        <mxCell id="yc7nGBEdVK8mMsmqjUh9-32" value="" style="strokeWidth=1;html=1;shadow=0;dashed=0;shape=mxgraph.android.rrect;rSize=0;fillColor=none;strokeColor=none;" vertex="1" parent="yc7nGBEdVK8mMsmqjUh9-31">
          <mxGeometry x="102" y="17.69" width="287.5" height="2" as="geometry" />
        </mxCell>
        <mxCell id="yc7nGBEdVK8mMsmqjUh9-33" value="" style="strokeWidth=1;html=1;shadow=0;dashed=0;shape=mxgraph.android.rrect;rSize=0;fillColor=#FF0000;strokeColor=none;" vertex="1" parent="yc7nGBEdVK8mMsmqjUh9-31">
          <mxGeometry x="-42.5" y="-3" width="113.5" height="2" as="geometry" />
        </mxCell>
        <mxCell id="yc7nGBEdVK8mMsmqjUh9-34" value="" style="strokeWidth=1;html=1;shadow=0;dashed=0;shape=mxgraph.android.anchor;fontStyle=1;fontColor=#ffffff;" vertex="1" parent="yc7nGBEdVK8mMsmqjUh9-29">
          <mxGeometry x="575" width="287.5" height="20" as="geometry" />
        </mxCell>
        <mxCell id="yc7nGBEdVK8mMsmqjUh9-35" value="" style="strokeWidth=1;html=1;shadow=0;dashed=0;shape=mxgraph.android.anchor;fontStyle=1;fontColor=#ffffff;" vertex="1" parent="yc7nGBEdVK8mMsmqjUh9-29">
          <mxGeometry x="862.5" width="287.5" height="20" as="geometry" />
        </mxCell>
        <mxCell id="yc7nGBEdVK8mMsmqjUh9-36" value="" style="strokeWidth=1;html=1;shadow=0;dashed=0;shape=mxgraph.android.rrect;rSize=0;fillColor=#FF0000;strokeColor=none;" vertex="1" parent="yc7nGBEdVK8mMsmqjUh9-29">
          <mxGeometry y="18" width="113" height="2" as="geometry" />
        </mxCell>
        <mxCell id="yc7nGBEdVK8mMsmqjUh9-37" value="" style="strokeWidth=1;html=1;shadow=0;dashed=0;shape=mxgraph.android.anchor;fontStyle=1;fontColor=#ffffff;" vertex="1" parent="yc7nGBEdVK8mMsmqjUh9-29">
          <mxGeometry x="96.25" width="197.75" height="20" as="geometry" />
        </mxCell>
        <mxCell id="yc7nGBEdVK8mMsmqjUh9-38" value="&lt;h1 style=&quot;margin-top: 0px;&quot;&gt;Welcome, Lenny&lt;/h1&gt;&lt;p&gt;&lt;br&gt;&lt;/p&gt;" style="text;html=1;whiteSpace=wrap;overflow=hidden;rounded=0;" vertex="1" parent="1">
          <mxGeometry x="39" y="4042" width="263" height="54" as="geometry" />
        </mxCell>
        <mxCell id="yc7nGBEdVK8mMsmqjUh9-39" value="Your Reports" style="html=1;shadow=0;dashed=0;shape=mxgraph.bootstrap.rect;strokeColor=none;fillColor=none;fontColor=#4D4D4D;align=left;spacingLeft=5;whiteSpace=wrap;rounded=0;fontSize=20;" vertex="1" parent="1">
          <mxGeometry x="53" y="4082" width="200" height="20" as="geometry" />
        </mxCell>
        <mxCell id="yc7nGBEdVK8mMsmqjUh9-40" value="Search" style="html=1;shadow=0;dashed=0;shape=mxgraph.bootstrap.rrect;rSize=5;fontSize=14;fontColor=#6C767D;strokeColor=#CED4DA;fillColor=#ffffff;align=left;spacing=10;" vertex="1" parent="1">
          <mxGeometry x="399" y="4080" width="180" height="20.42" as="geometry" />
        </mxCell>
        <mxCell id="yc7nGBEdVK8mMsmqjUh9-41" value="&lt;font style=&quot;font-size: 15px;&quot;&gt;New&lt;/font&gt;" style="text;strokeColor=none;fillColor=none;html=1;fontSize=24;fontStyle=1;verticalAlign=middle;align=center;fontColor=#660000;" vertex="1" parent="1">
          <mxGeometry x="84.5999999999998" y="4120" width="51" height="25" as="geometry" />
        </mxCell>
        <mxCell id="yc7nGBEdVK8mMsmqjUh9-42" value="&lt;font style=&quot;font-size: 10px;&quot;&gt;JS&lt;/font&gt;" style="rounded=1;whiteSpace=wrap;html=1;arcSize=50;strokeColor=none;strokeWidth=1;fillColor=#006600;fontColor=#FFFFFF;whiteSpace=wrap;align=left;verticalAlign=middle;spacingLeft=0;fontStyle=1;fontSize=10;spacing=10;" vertex="1" parent="1">
          <mxGeometry x="740" y="4214" width="33" height="17" as="geometry" />
        </mxCell>
        <mxCell id="yc7nGBEdVK8mMsmqjUh9-43" value="&lt;font style=&quot;font-size: 10px;&quot;&gt;DG&lt;/font&gt;" style="rounded=1;whiteSpace=wrap;html=1;arcSize=50;strokeColor=none;strokeWidth=1;fillColor=#4C0099;fontColor=#FFFFFF;whiteSpace=wrap;align=left;verticalAlign=middle;spacingLeft=0;fontStyle=1;fontSize=10;spacing=10;" vertex="1" parent="1">
          <mxGeometry x="740" y="4187.5" width="33" height="17" as="geometry" />
        </mxCell>
        <mxCell id="yc7nGBEdVK8mMsmqjUh9-44" value="&lt;font style=&quot;font-size: 10px;&quot;&gt;DG&lt;/font&gt;" style="rounded=1;whiteSpace=wrap;html=1;arcSize=50;strokeColor=none;strokeWidth=1;fillColor=#4C0099;fontColor=#FFFFFF;whiteSpace=wrap;align=left;verticalAlign=middle;spacingLeft=0;fontStyle=1;fontSize=10;spacing=10;" vertex="1" parent="1">
          <mxGeometry x="785" y="4246.5" width="33" height="17" as="geometry" />
        </mxCell>
        <mxCell id="yc7nGBEdVK8mMsmqjUh9-45" value="&lt;font style=&quot;font-size: 10px;&quot;&gt;LM&lt;/font&gt;" style="rounded=1;whiteSpace=wrap;html=1;arcSize=50;strokeColor=none;strokeWidth=1;fillColor=#4D4D4D;fontColor=#FFFFFF;whiteSpace=wrap;align=left;verticalAlign=middle;spacingLeft=0;fontStyle=1;fontSize=10;spacing=10;" vertex="1" parent="1">
          <mxGeometry x="740" y="4246.5" width="33" height="17" as="geometry" />
        </mxCell>
        <mxCell id="yc7nGBEdVK8mMsmqjUh9-46" value="" style="shape=image;verticalLabelPosition=bottom;labelBackgroundColor=default;verticalAlign=top;aspect=fixed;imageAspect=0;image=data:image/svg+xml,PHN2ZyB4bWxucz0iaHR0cDovL3d3dy53My5vcmcvMjAwMC9zdmciIHZpZXdCb3g9IjAgMCA1MTIgNTEyIj48cGF0aCBkPSJNMCA0MTZjMCAxNy43IDE0LjMgMzIgMzIgMzJsNTQuNyAwYzEyLjMgMjguMyA0MC41IDQ4IDczLjMgNDhzNjEtMTkuNyA3My4zLTQ4TDQ4MCA0NDhjMTcuNyAwIDMyLTE0LjMgMzItMzJzLTE0LjMtMzItMzItMzJsLTI0Ni43IDBjLTEyLjMtMjguMy00MC41LTQ4LTczLjMtNDhzLTYxIDE5LjctNzMuMyA0OEwzMiAzODRjLTE3LjcgMC0zMiAxNC4zLTMyIDMyem0xMjggMGEzMiAzMiAwIDEgMSA2NCAwIDMyIDMyIDAgMSAxIC02NCAwek0zMjAgMjU2YTMyIDMyIDAgMSAxIDY0IDAgMzIgMzIgMCAxIDEgLTY0IDB6bTMyLTgwYy0zMi44IDAtNjEgMTkuNy03My4zIDQ4TDMyIDIyNGMtMTcuNyAwLTMyIDE0LjMtMzIgMzJzMTQuMyAzMiAzMiAzMmwyNDYuNyAwYzEyLjMgMjguMyA0MC41IDQ4IDczLjMgNDhzNjEtMTkuNyA3My4zLTQ4bDU0LjcgMGMxNy43IDAgMzItMTQuMyAzMi0zMnMtMTQuMy0zMi0zMi0zMmwtNTQuNyAwYy0xMi4zLTI4LjMtNDAuNS00OC03My4zLTQ4ek0xOTIgMTI4YTMyIDMyIDAgMSAxIDAtNjQgMzIgMzIgMCAxIDEgMCA2NHptNzMuMy02NEMyNTMgMzUuNyAyMjQuOCAxNiAxOTIgMTZzLTYxIDE5LjctNzMuMyA0OEwzMiA2NEMxNC4zIDY0IDAgNzguMyAwIDk2czE0LjMgMzIgMzIgMzJsODYuNyAwYzEyLjMgMjguMyA0MC41IDQ4IDczLjMgNDhzNjEtMTkuNyA3My4zLTQ4TDQ4MCAxMjhjMTcuNyAwIDMyLTE0LjMgMzItMzJzLTE0LjMtMzItMzItMzJMMjY1LjMgNjR6IiBmaWxsPSIjNjYwMDAwIi8+PC9zdmc+;movable=1;resizable=1;rotatable=1;deletable=1;editable=1;locked=0;connectable=1;" vertex="1" parent="1">
          <mxGeometry x="78" y="4247.5" width="15" height="15" as="geometry" />
        </mxCell>
        <mxCell id="yc7nGBEdVK8mMsmqjUh9-47" value="" style="shape=image;verticalLabelPosition=bottom;labelBackgroundColor=default;verticalAlign=top;aspect=fixed;imageAspect=0;image=data:image/svg+xml,PHN2ZyB4bWxucz0iaHR0cDovL3d3dy53My5vcmcvMjAwMC9zdmciIHZpZXdCb3g9IjAgMCA0NDggNTEyIj48cGF0aCBkPSJNMjU2IDgwYzAtMTcuNy0xNC4zLTMyLTMyLTMycy0zMiAxNC4zLTMyIDMybDAgMTQ0TDQ4IDIyNGMtMTcuNyAwLTMyIDE0LjMtMzIgMzJzMTQuMyAzMiAzMiAzMmwxNDQgMCAwIDE0NGMwIDE3LjcgMTQuMyAzMiAzMiAzMnMzMi0xNC4zIDMyLTMybDAtMTQ0IDE0NCAwYzE3LjcgMCAzMi0xNC4zIDMyLTMycy0xNC4zLTMyLTMyLTMybC0xNDQgMCAwLTE0NHoiIGZpbGw9IiM2NjAwMDAiLz48L3N2Zz4=;" vertex="1" parent="1">
          <mxGeometry x="74.99999999999955" y="4125" width="13.13" height="15" as="geometry" />
        </mxCell>
        <mxCell id="yc7nGBEdVK8mMsmqjUh9-48" value="" style="shape=image;verticalLabelPosition=bottom;labelBackgroundColor=default;verticalAlign=top;aspect=fixed;imageAspect=0;image=data:image/svg+xml,PHN2ZyB4bWxucz0iaHR0cDovL3d3dy53My5vcmcvMjAwMC9zdmciIHZpZXdCb3g9IjAgMCAzODQgNTEyIj48cGF0aCBkPSJNMzQyLjYgMTUwLjZjMTIuNS0xMi41IDEyLjUtMzIuOCAwLTQ1LjNzLTMyLjgtMTIuNS00NS4zIDBMMTkyIDIxMC43IDg2LjYgMTA1LjRjLTEyLjUtMTIuNS0zMi44LTEyLjUtNDUuMyAwcy0xMi41IDMyLjggMCA0NS4zTDE0Ni43IDI1NiA0MS40IDM2MS40Yy0xMi41IDEyLjUtMTIuNSAzMi44IDAgNDUuM3MzMi44IDEyLjUgNDUuMyAwTDE5MiAzMDEuMyAyOTcuNCA0MDYuNmMxMi41IDEyLjUgMzIuOCAxMi41IDQ1LjMgMHMxMi41LTMyLjggMC00NS4zTDIzNy4zIDI1NiAzNDIuNiAxNTAuNnoiIGZpbGw9IiM2NjAwMDAiLz48L3N2Zz4=;" vertex="1" parent="1">
          <mxGeometry x="121" y="4245" width="15" height="20" as="geometry" />
        </mxCell>
        <mxCell id="yc7nGBEdVK8mMsmqjUh9-49" value="" style="shape=image;verticalLabelPosition=bottom;labelBackgroundColor=default;verticalAlign=top;aspect=fixed;imageAspect=0;image=data:image/svg+xml,PHN2ZyB4bWxucz0iaHR0cDovL3d3dy53My5vcmcvMjAwMC9zdmciIHZpZXdCb3g9IjAgMCA0NDggNTEyIj48cGF0aCBkPSJNMzg0IDMzNmwtMTkyIDBjLTguOCAwLTE2LTcuMi0xNi0xNmwwLTI1NmMwLTguOCA3LjItMTYgMTYtMTZsMTQwLjEgMEw0MDAgMTE1LjkgNDAwIDMyMGMwIDguOC03LjIgMTYtMTYgMTZ6TTE5MiAzODRsMTkyIDBjMzUuMyAwIDY0LTI4LjcgNjQtNjRsMC0yMDQuMWMwLTEyLjctNS4xLTI0LjktMTQuMS0zMy45TDM2Ni4xIDE0LjFjLTktOS0yMS4yLTE0LjEtMzMuOS0xNC4xTDE5MiAwYy0zNS4zIDAtNjQgMjguNy02NCA2NGwwIDI1NmMwIDM1LjMgMjguNyA2NCA2NCA2NHpNNjQgMTI4Yy0zNS4zIDAtNjQgMjguNy02NCA2NEwwIDQ0OGMwIDM1LjMgMjguNyA2NCA2NCA2NGwxOTIgMGMzNS4zIDAgNjQtMjguNyA2NC02NGwwLTMyLTQ4IDAgMCAzMmMwIDguOC03LjIgMTYtMTYgMTZMNjQgNDY0Yy04LjggMC0xNi03LjItMTYtMTZsMC0yNTZjMC04LjggNy4yLTE2IDE2LTE2bDMyIDAgMC00OC0zMiAweiIgZmlsbD0iIzY2MDAwMCIvPjwvc3ZnPg==;" vertex="1" parent="1">
          <mxGeometry x="100.82999999999998" y="4247.5" width="13.13" height="15" as="geometry" />
        </mxCell>
        <mxCell id="yc7nGBEdVK8mMsmqjUh9-50" value="" style="shape=image;verticalLabelPosition=bottom;labelBackgroundColor=default;verticalAlign=top;aspect=fixed;imageAspect=0;image=data:image/svg+xml,PHN2ZyB4bWxucz0iaHR0cDovL3d3dy53My5vcmcvMjAwMC9zdmciIHZpZXdCb3g9IjAgMCA1MTIgNTEyIj48cGF0aCBkPSJNMCA0MTZjMCAxNy43IDE0LjMgMzIgMzIgMzJsNTQuNyAwYzEyLjMgMjguMyA0MC41IDQ4IDczLjMgNDhzNjEtMTkuNyA3My4zLTQ4TDQ4MCA0NDhjMTcuNyAwIDMyLTE0LjMgMzItMzJzLTE0LjMtMzItMzItMzJsLTI0Ni43IDBjLTEyLjMtMjguMy00MC41LTQ4LTczLjMtNDhzLTYxIDE5LjctNzMuMyA0OEwzMiAzODRjLTE3LjcgMC0zMiAxNC4zLTMyIDMyem0xMjggMGEzMiAzMiAwIDEgMSA2NCAwIDMyIDMyIDAgMSAxIC02NCAwek0zMjAgMjU2YTMyIDMyIDAgMSAxIDY0IDAgMzIgMzIgMCAxIDEgLTY0IDB6bTMyLTgwYy0zMi44IDAtNjEgMTkuNy03My4zIDQ4TDMyIDIyNGMtMTcuNyAwLTMyIDE0LjMtMzIgMzJzMTQuMyAzMiAzMiAzMmwyNDYuNyAwYzEyLjMgMjguMyA0MC41IDQ4IDczLjMgNDhzNjEtMTkuNyA3My4zLTQ4bDU0LjcgMGMxNy43IDAgMzItMTQuMyAzMi0zMnMtMTQuMy0zMi0zMi0zMmwtNTQuNyAwYy0xMi4zLTI4LjMtNDAuNS00OC03My4zLTQ4ek0xOTIgMTI4YTMyIDMyIDAgMSAxIDAtNjQgMzIgMzIgMCAxIDEgMCA2NHptNzMuMy02NEMyNTMgMzUuNyAyMjQuOCAxNiAxOTIgMTZzLTYxIDE5LjctNzMuMyA0OEwzMiA2NEMxNC4zIDY0IDAgNzguMyAwIDk2czE0LjMgMzIgMzIgMzJsODYuNyAwYzEyLjMgMjguMyA0MC41IDQ4IDczLjMgNDhzNjEtMTkuNyA3My4zLTQ4TDQ4MCAxMjhjMTcuNyAwIDMyLTE0LjMgMzItMzJzLTE0LjMtMzItMzItMzJMMjY1LjMgNjR6IiBmaWxsPSIjNjYwMDAwIi8+PC9zdmc+;movable=1;resizable=1;rotatable=1;deletable=1;editable=1;locked=0;connectable=1;" vertex="1" parent="1">
          <mxGeometry x="78.39" y="4218.5" width="15" height="15" as="geometry" />
        </mxCell>
        <mxCell id="yc7nGBEdVK8mMsmqjUh9-51" value="" style="shape=image;verticalLabelPosition=bottom;labelBackgroundColor=default;verticalAlign=top;aspect=fixed;imageAspect=0;image=data:image/svg+xml,PHN2ZyB4bWxucz0iaHR0cDovL3d3dy53My5vcmcvMjAwMC9zdmciIHZpZXdCb3g9IjAgMCAzODQgNTEyIj48cGF0aCBkPSJNMzQyLjYgMTUwLjZjMTIuNS0xMi41IDEyLjUtMzIuOCAwLTQ1LjNzLTMyLjgtMTIuNS00NS4zIDBMMTkyIDIxMC43IDg2LjYgMTA1LjRjLTEyLjUtMTIuNS0zMi44LTEyLjUtNDUuMyAwcy0xMi41IDMyLjggMCA0NS4zTDE0Ni43IDI1NiA0MS40IDM2MS40Yy0xMi41IDEyLjUtMTIuNSAzMi44IDAgNDUuM3MzMi44IDEyLjUgNDUuMyAwTDE5MiAzMDEuMyAyOTcuNCA0MDYuNmMxMi41IDEyLjUgMzIuOCAxMi41IDQ1LjMgMHMxMi41LTMyLjggMC00NS4zTDIzNy4zIDI1NiAzNDIuNiAxNTAuNnoiIGZpbGw9IiM2NjAwMDAiLz48L3N2Zz4=;" vertex="1" parent="1">
          <mxGeometry x="121.39" y="4216" width="15" height="20" as="geometry" />
        </mxCell>
        <mxCell id="yc7nGBEdVK8mMsmqjUh9-52" value="" style="shape=image;verticalLabelPosition=bottom;labelBackgroundColor=default;verticalAlign=top;aspect=fixed;imageAspect=0;image=data:image/svg+xml,PHN2ZyB4bWxucz0iaHR0cDovL3d3dy53My5vcmcvMjAwMC9zdmciIHZpZXdCb3g9IjAgMCA0NDggNTEyIj48cGF0aCBkPSJNMzg0IDMzNmwtMTkyIDBjLTguOCAwLTE2LTcuMi0xNi0xNmwwLTI1NmMwLTguOCA3LjItMTYgMTYtMTZsMTQwLjEgMEw0MDAgMTE1LjkgNDAwIDMyMGMwIDguOC03LjIgMTYtMTYgMTZ6TTE5MiAzODRsMTkyIDBjMzUuMyAwIDY0LTI4LjcgNjQtNjRsMC0yMDQuMWMwLTEyLjctNS4xLTI0LjktMTQuMS0zMy45TDM2Ni4xIDE0LjFjLTktOS0yMS4yLTE0LjEtMzMuOS0xNC4xTDE5MiAwYy0zNS4zIDAtNjQgMjguNy02NCA2NGwwIDI1NmMwIDM1LjMgMjguNyA2NCA2NCA2NHpNNjQgMTI4Yy0zNS4zIDAtNjQgMjguNy02NCA2NEwwIDQ0OGMwIDM1LjMgMjguNyA2NCA2NCA2NGwxOTIgMGMzNS4zIDAgNjQtMjguNyA2NC02NGwwLTMyLTQ4IDAgMCAzMmMwIDguOC03LjIgMTYtMTYgMTZMNjQgNDY0Yy04LjggMC0xNi03LjItMTYtMTZsMC0yNTZjMC04LjggNy4yLTE2IDE2LTE2bDMyIDAgMC00OC0zMiAweiIgZmlsbD0iIzY2MDAwMCIvPjwvc3ZnPg==;" vertex="1" parent="1">
          <mxGeometry x="101.21999999999998" y="4218.5" width="13.13" height="15" as="geometry" />
        </mxCell>
        <mxCell id="yc7nGBEdVK8mMsmqjUh9-53" value="" style="shape=image;verticalLabelPosition=bottom;labelBackgroundColor=default;verticalAlign=top;aspect=fixed;imageAspect=0;image=data:image/svg+xml,PHN2ZyB4bWxucz0iaHR0cDovL3d3dy53My5vcmcvMjAwMC9zdmciIHZpZXdCb3g9IjAgMCA1MTIgNTEyIj48cGF0aCBkPSJNMCA0MTZjMCAxNy43IDE0LjMgMzIgMzIgMzJsNTQuNyAwYzEyLjMgMjguMyA0MC41IDQ4IDczLjMgNDhzNjEtMTkuNyA3My4zLTQ4TDQ4MCA0NDhjMTcuNyAwIDMyLTE0LjMgMzItMzJzLTE0LjMtMzItMzItMzJsLTI0Ni43IDBjLTEyLjMtMjguMy00MC41LTQ4LTczLjMtNDhzLTYxIDE5LjctNzMuMyA0OEwzMiAzODRjLTE3LjcgMC0zMiAxNC4zLTMyIDMyem0xMjggMGEzMiAzMiAwIDEgMSA2NCAwIDMyIDMyIDAgMSAxIC02NCAwek0zMjAgMjU2YTMyIDMyIDAgMSAxIDY0IDAgMzIgMzIgMCAxIDEgLTY0IDB6bTMyLTgwYy0zMi44IDAtNjEgMTkuNy03My4zIDQ4TDMyIDIyNGMtMTcuNyAwLTMyIDE0LjMtMzIgMzJzMTQuMyAzMiAzMiAzMmwyNDYuNyAwYzEyLjMgMjguMyA0MC41IDQ4IDczLjMgNDhzNjEtMTkuNyA3My4zLTQ4bDU0LjcgMGMxNy43IDAgMzItMTQuMyAzMi0zMnMtMTQuMy0zMi0zMi0zMmwtNTQuNyAwYy0xMi4zLTI4LjMtNDAuNS00OC03My4zLTQ4ek0xOTIgMTI4YTMyIDMyIDAgMSAxIDAtNjQgMzIgMzIgMCAxIDEgMCA2NHptNzMuMy02NEMyNTMgMzUuNyAyMjQuOCAxNiAxOTIgMTZzLTYxIDE5LjctNzMuMyA0OEwzMiA2NEMxNC4zIDY0IDAgNzguMyAwIDk2czE0LjMgMzIgMzIgMzJsODYuNyAwYzEyLjMgMjguMyA0MC41IDQ4IDczLjMgNDhzNjEtMTkuNyA3My4zLTQ4TDQ4MCAxMjhjMTcuNyAwIDMyLTE0LjMgMzItMzJzLTE0LjMtMzItMzItMzJMMjY1LjMgNjR6IiBmaWxsPSIjNjYwMDAwIi8+PC9zdmc+;movable=1;resizable=1;rotatable=1;deletable=1;editable=1;locked=0;connectable=1;" vertex="1" parent="1">
          <mxGeometry x="78.39" y="4188.5" width="15" height="15" as="geometry" />
        </mxCell>
        <mxCell id="yc7nGBEdVK8mMsmqjUh9-54" value="" style="shape=image;verticalLabelPosition=bottom;labelBackgroundColor=default;verticalAlign=top;aspect=fixed;imageAspect=0;image=data:image/svg+xml,PHN2ZyB4bWxucz0iaHR0cDovL3d3dy53My5vcmcvMjAwMC9zdmciIHZpZXdCb3g9IjAgMCAzODQgNTEyIj48cGF0aCBkPSJNMzQyLjYgMTUwLjZjMTIuNS0xMi41IDEyLjUtMzIuOCAwLTQ1LjNzLTMyLjgtMTIuNS00NS4zIDBMMTkyIDIxMC43IDg2LjYgMTA1LjRjLTEyLjUtMTIuNS0zMi44LTEyLjUtNDUuMyAwcy0xMi41IDMyLjggMCA0NS4zTDE0Ni43IDI1NiA0MS40IDM2MS40Yy0xMi41IDEyLjUtMTIuNSAzMi44IDAgNDUuM3MzMi44IDEyLjUgNDUuMyAwTDE5MiAzMDEuMyAyOTcuNCA0MDYuNmMxMi41IDEyLjUgMzIuOCAxMi41IDQ1LjMgMHMxMi41LTMyLjggMC00NS4zTDIzNy4zIDI1NiAzNDIuNiAxNTAuNnoiIGZpbGw9IiM2NjAwMDAiLz48L3N2Zz4=;" vertex="1" parent="1">
          <mxGeometry x="121.39" y="4186" width="15" height="20" as="geometry" />
        </mxCell>
        <mxCell id="yc7nGBEdVK8mMsmqjUh9-55" value="" style="shape=image;verticalLabelPosition=bottom;labelBackgroundColor=default;verticalAlign=top;aspect=fixed;imageAspect=0;image=data:image/svg+xml,PHN2ZyB4bWxucz0iaHR0cDovL3d3dy53My5vcmcvMjAwMC9zdmciIHZpZXdCb3g9IjAgMCA0NDggNTEyIj48cGF0aCBkPSJNMzg0IDMzNmwtMTkyIDBjLTguOCAwLTE2LTcuMi0xNi0xNmwwLTI1NmMwLTguOCA3LjItMTYgMTYtMTZsMTQwLjEgMEw0MDAgMTE1LjkgNDAwIDMyMGMwIDguOC03LjIgMTYtMTYgMTZ6TTE5MiAzODRsMTkyIDBjMzUuMyAwIDY0LTI4LjcgNjQtNjRsMC0yMDQuMWMwLTEyLjctNS4xLTI0LjktMTQuMS0zMy45TDM2Ni4xIDE0LjFjLTktOS0yMS4yLTE0LjEtMzMuOS0xNC4xTDE5MiAwYy0zNS4zIDAtNjQgMjguNy02NCA2NGwwIDI1NmMwIDM1LjMgMjguNyA2NCA2NCA2NHpNNjQgMTI4Yy0zNS4zIDAtNjQgMjguNy02NCA2NEwwIDQ0OGMwIDM1LjMgMjguNyA2NCA2NCA2NGwxOTIgMGMzNS4zIDAgNjQtMjguNyA2NC02NGwwLTMyLTQ4IDAgMCAzMmMwIDguOC03LjIgMTYtMTYgMTZMNjQgNDY0Yy04LjggMC0xNi03LjItMTYtMTZsMC0yNTZjMC04LjggNy4yLTE2IDE2LTE2bDMyIDAgMC00OC0zMiAweiIgZmlsbD0iIzY2MDAwMCIvPjwvc3ZnPg==;" vertex="1" parent="1">
          <mxGeometry x="101.21999999999998" y="4188.5" width="13.13" height="15" as="geometry" />
        </mxCell>
      </root>
    </mxGraphModel>
  </diagram>
</mxfile>
